<svg xmlns="http://www.w3.org/2000/svg" width="375" viewBox="0 0 375 375" height="375" version="1.0"><defs><clipPath id="a"><path d="M 15.132812 12.015625 L 332 12.015625 L 332 329 L 15.132812 329 Z M 15.132812 12.015625"/></clipPath></defs><g clip-path="url(#a)"><path fill="#7ED957" d="M 203.640625 270.535156 L 199.542969 260.003906 C 197.203125 260.6875 194.851562 261.269531 192.511719 261.757812 C 192.285156 261.808594 192.039062 261.855469 191.8125 261.886719 C 185.769531 263.109375 179.546875 263.726562 173.375 263.726562 C 121.941406 263.726562 80.09375 221.859375 80.09375 170.410156 C 80.09375 118.957031 121.941406 77.09375 173.375 77.09375 C 224.808594 77.09375 266.652344 118.957031 266.652344 170.40625 C 266.652344 175.738281 266.203125 181.035156 265.304688 186.171875 C 265.289062 186.351562 265.257812 186.53125 265.226562 186.710938 C 264.609375 190.253906 263.78125 193.761719 262.738281 197.207031 L 273.039062 201.269531 C 283.242188 205.285156 290.925781 213.476562 294.5 223.390625 C 296.839844 218.105469 298.804688 212.628906 300.429688 207.007812 C 301.371094 203.738281 303.941406 201.21875 307.207031 200.34375 L 324.492188 195.761719 C 328.695312 194.636719 331.636719 190.820312 331.636719 186.464844 L 331.636719 154.351562 C 331.636719 149.996094 328.695312 146.175781 324.492188 145.058594 L 307.207031 140.472656 C 303.921875 139.597656 301.371094 137.0625 300.429688 133.796875 C 297.765625 124.53125 294.109375 115.691406 289.578125 107.386719 C 287.96875 104.414062 287.988281 100.835938 289.675781 97.914062 L 298.839844 82.148438 C 301.03125 78.359375 300.398438 73.597656 297.328125 70.511719 L 274.632812 47.808594 C 271.546875 44.71875 266.769531 44.101562 263 46.28125 L 247.648438 55.203125 C 244.691406 56.925781 241.070312 56.925781 238.097656 55.25 C 229.40625 50.390625 220.128906 46.476562 210.367188 43.664062 C 207.117188 42.722656 204.597656 40.152344 203.722656 36.886719 L 199.042969 19.253906 C 197.921875 15.03125 194.105469 12.085938 189.75 12.085938 L 157.648438 12.085938 C 153.296875 12.085938 149.476562 15.03125 148.359375 19.253906 L 143.679688 36.886719 C 142.820312 40.171875 140.285156 42.722656 137.015625 43.664062 C 127.824219 46.3125 119.050781 49.953125 110.8125 54.421875 C 107.839844 56.046875 104.265625 56.015625 101.359375 54.324219 L 85.144531 44.898438 C 81.359375 42.722656 76.601562 43.339844 73.515625 46.425781 L 50.816406 69.128906 C 47.730469 72.203125 47.113281 76.980469 49.292969 80.765625 L 58.46875 96.5625 C 60.175781 99.503906 60.191406 103.128906 58.519531 106.117188 C 53.710938 114.730469 49.824219 123.960938 47.015625 133.632812 C 46.074219 136.882812 43.523438 139.417969 40.257812 140.277344 L 22.273438 145.058594 C 18.050781 146.175781 15.109375 149.996094 15.109375 154.351562 L 15.109375 186.464844 C 15.109375 190.820312 18.050781 194.636719 22.273438 195.761719 L 40.257812 200.539062 C 43.523438 201.398438 46.089844 203.953125 47.03125 207.203125 C 49.632812 216.207031 53.171875 224.800781 57.527344 232.894531 C 59.117188 235.855469 59.101562 239.410156 57.414062 242.320312 L 47.910156 258.6875 C 45.734375 262.457031 46.351562 267.234375 49.4375 270.324219 L 72.132812 293.027344 C 75.21875 296.097656 79.976562 296.730469 83.761719 294.535156 L 99.441406 285.4375 C 102.398438 283.714844 106.019531 283.714844 109.011719 285.386719 C 117.78125 290.34375 127.171875 294.3125 137.035156 297.171875 C 140.285156 298.097656 142.816406 300.664062 143.679688 303.929688 L 148.355469 321.582031 C 149.476562 325.789062 153.292969 328.730469 157.648438 328.730469 L 189.75 328.730469 C 194.101562 328.730469 197.921875 325.789062 199.042969 321.582031 L 203.71875 303.929688 C 204.597656 300.664062 207.132812 298.097656 210.394531 297.152344 C 215.042969 295.820312 219.59375 294.214844 224.007812 292.359375 C 224.382812 292.214844 224.742188 292.066406 225.117188 291.902344 C 215.464844 288.167969 207.503906 280.480469 203.640625 270.535156 Z M 203.640625 270.535156"/></g><path fill="#7ED957" d="M 320.863281 246.550781 C 319.113281 247.214844 319.113281 249.699219 320.863281 250.363281 C 327.761719 252.984375 330.875 256.097656 333.496094 263 C 334.160156 264.75 336.644531 264.75 337.304688 263 C 339.925781 256.097656 343.035156 252.984375 349.9375 250.363281 C 351.6875 249.699219 351.6875 247.214844 349.9375 246.550781 C 343.039062 243.929688 339.925781 240.816406 337.304688 233.910156 C 336.644531 232.164062 334.160156 232.164062 333.496094 233.910156 C 330.875 240.816406 327.761719 243.929688 320.863281 246.550781 Z M 320.863281 246.550781"/><path fill="#7ED957" d="M 360.328125 334.335938 L 289.027344 263.011719 C 286.980469 260.964844 285.890625 258.136719 286.039062 255.242188 L 286.980469 237.316406 C 286.996094 237.054688 286.996094 236.796875 286.996094 236.535156 C 287.15625 225.03125 280.1875 214.5625 269.464844 210.339844 L 259.457031 206.371094 L 250.394531 202.800781 L 237.089844 197.535156 C 236.292969 197.226562 235.449219 197.0625 234.601562 197.0625 C 232.796875 197.0625 231.09375 197.761719 229.824219 199.046875 L 229.582031 199.273438 C 226.953125 201.90625 226.953125 206.195312 229.582031 208.828125 L 245.324219 221.796875 L 254.535156 229.386719 C 254.859375 229.710938 254.910156 230.101562 254.910156 230.296875 C 254.910156 230.507812 254.859375 230.882812 254.535156 231.222656 L 234.066406 251.714844 C 233.742188 252.042969 233.351562 252.089844 233.140625 252.089844 C 232.945312 252.089844 232.554688 252.042969 232.230469 251.714844 L 224.417969 242.632812 L 211.324219 227.402344 C 209.992188 226.070312 208.15625 225.304688 206.304688 225.304688 C 205.003906 225.304688 203.738281 225.679688 202.679688 226.394531 C 199.984375 228.167969 198.929688 231.496094 200.082031 234.488281 L 205.230469 247.730469 L 206.96875 252.21875 L 208.757812 256.800781 L 212.71875 266.992188 C 216.828125 277.570312 227.210938 284.6875 238.550781 284.6875 C 238.941406 284.6875 239.328125 284.671875 239.71875 284.65625 L 241.492188 284.558594 L 257.605469 283.679688 C 257.785156 283.679688 257.976562 283.667969 258.15625 283.667969 C 260.886719 283.667969 263.453125 284.738281 265.386719 286.671875 L 336.675781 357.984375 C 339.839844 361.136719 344.035156 362.875 348.5 362.875 C 352.96875 362.875 357.160156 361.136719 360.328125 357.984375 C 366.839844 351.464844 366.839844 340.855469 360.328125 334.335938 Z M 360.328125 334.335938"/><path fill="#7ED957" d="M 161.191406 122.675781 L 165.601562 182.648438 L 181.152344 182.648438 L 185.5625 122.675781 Z M 161.191406 122.675781"/><path fill="#7ED957" d="M 165.253906 196.199219 L 181.5 196.199219 L 181.5 215.089844 L 165.253906 215.089844 Z M 165.253906 196.199219"/></svg>